<svg xmlns="http://www.w3.org/2000/svg" version="1.1" xmlns:xlink="http://www.w3.org/1999/xlink" xmlns:svgjs="http://svgjs.dev/svgjs" viewBox="0 0 600 600"><path d="M139.28199869244952 359.90413926673733C124.24703444887857 350.11393235755764 72.84843546002764 251.16291052731674 87.88340097516436 206.75731919837796C102.91836649030108 162.35172786943915 178.2680152838395 105.35870622230374 229.49179178326983 93.47059129310452C280.7155682827002 81.5824763639053 352.21906890322424 148.190865900445 395.2260599717464 135.42862962318264C438.23305104026855 122.66639334592028 467.6036692246761 2.56150824460191 487.53373819440264 16.8971736295303C507.4638071641292 31.23283901445869 536.135143020249 176.51255169146066 514.8064737901058 221.44262193275296C493.47780455996246 266.37269217404526 415.6806040391292 279.1349386238337 359.56172281354327 286.4775950772842C303.44284158795733 293.8202515307347 214.80647379010577 253.2608032885472 178.09318643659014 265.4985606534561C141.37989908307452 277.73631801836495 154.31696293602047 369.694346175917 139.28199869244952 359.90413926673733C124.24703444887857 350.11393235755764 72.84843546002764 251.16291052731674 87.88340097516436 206.75731919837796 " fill="url(&quot;#SvgjsLinearGradient1005&quot;)" transform="matrix(1.477455443789063,0,0,1.477455443789063,-154.5898555194122,-116.18130315139217)"></path><path d="M272.81435988960686 614.4063602130382C257.77939564603594 604.6161533038585 206.380796657185 505.66513147361684 221.4157621723217 461.25954014467806C236.45072768745842 416.8539488157393 311.8003764809969 359.86092716860384 363.0241529804272 347.9728122394046C414.24792947985753 336.0846973102054 485.7514301003816 402.6930868467451 528.7584211689041 389.93085056948274C571.7654122374258 377.1686142922204 601.1360304218331 257.063729190902 621.0660993915596 271.3993945758304C640.9961683612862 285.7350599607588 669.6675042174061 431.01477263776076 648.3388349872628 475.94484287905306C627.0101657571195 520.8749131203454 549.2129652362869 533.6371595701337 493.0940840107006 540.9798160235841C436.9752027851147 548.3224724770346 348.3388349872631 507.76302423484736 311.6255476337475 520.0007815997562C274.91226028023186 532.2385389646649 287.8493241331778 624.1965671222179 272.81435988960686 614.4063602130382C257.77939564603594 604.6161533038585 206.380796657185 505.66513147361684 221.4157621723217 461.25954014467806 " fill-opacity="1" fill="url(&quot;#SvgjsLinearGradient1004&quot;)" opacity="1" stroke-opacity="1" stroke-width="0" stroke="hsl(340, 45%, 30%)" transform="matrix(-1.477455443789063,0,0,1.4774554437890628,918.7554429272637,-98.3159281657986)"></path><defs><linearGradient id="SvgjsLinearGradient1004"><stop stop-color="#8a0707" offset="0"></stop><stop stop-color="#3c1b1b" offset="1"></stop></linearGradient><linearGradient id="SvgjsLinearGradient1005"><stop stop-color="#8a0707" offset="0"></stop><stop stop-color="#3c1b1b" offset="1"></stop></linearGradient></defs></svg>